# xmcd
#
# Track frame offsets:
# 150
# 17317
# 30038
# 45400
# 59859
# 72462
# 83721
# 96327
# 107911
# 120362
# 134822
# 149584
# 162311
#
# Disc length: 2330 seconds
#
#
# Revision: 0
# Processed by: cddbd v1.5.2PL0 Copyright (c) Steve Scherf et al.
# Submitted via: FreeRIP 2.944 
#
DISCID=b209180d
DTITLE=Arlindo dos 8 Baixos - Dançando Na Chuva - Arlindo dos 8 Baixos
DYEAR=2004
DGENRE=Acoustic
TTITLE0=Dançando na Chuva-Arlindo dos 8 Baixos
TTITLE1=Forrozando em Tamandaré-Arlindo dos 8 Baixos
TTITLE2=Saudade da Bahia - João Gordo
TTITLE3=No Terreiro dos Aleixos - Arlindo dos 8 Baixos
TTITLE4=Chorinho em Aldeia - Severino Araujo
TTITLE5=Eu e Tu - Arlindo dos 8 Baixos e Antônio Aleixo
TTITLE6=Dois Amigos - Arlindo dos 8 Baixos e Genaro
TTITLE7=Camundongo - Valdir Azevedo
TTITLE8=Forró Em Limoeiro - João Leite
TTITLE9=Sanfoneiro Ruim - Arlindo dos 8 Baixos e Adelma Regina, Part. de Arlindo Moita
TTITLE10=No Forró do Arlindo - Beto do Bandolim
TTITLE11=Fuxicando Arlindo dos 8 Baixos
TTITLE12=Treze de Dezembro - Luiz Gonzaga
EXTD=Instrumental
EXTT0=
EXTT1=
EXTT2=
EXTT3=
EXTT4=
EXTT5=
EXTT6=
EXTT7=
EXTT8=
EXTT9=
EXTT10=
EXTT11=
EXTT12=
PLAYORDER=
